<?xml version="1.0" encoding="UTF-8" standalone="no"?>
<!-- Created with Inkscape (http://www.inkscape.org/) -->

<svg
   width="512mm"
   height="512mm"
   viewBox="0 0 512 512"
   version="1.1"
   id="svg1"
   xmlns="http://www.w3.org/2000/svg"
   xmlns:svg="http://www.w3.org/2000/svg">
  <defs
     id="defs1" />
  <g
     id="layer1">
    <circle
       style="fill:#000000;stroke:#000000;stroke-width:0.101"
       id="path1"
       cx="256"
       cy="256"
       r="256" />
    <g
       id="g2"
       transform="matrix(0.84694354,0,0,0.84694354,585.32394,64.057284)">
      <g
         id="g1"
         transform="translate(-2.2543068,-37.739081)">
        <rect
           style="fill:#ffffff;stroke-width:0.1714"
           id="rect1"
           width="365.65009"
           height="61.95179"
           x="247.37817"
           y="25.353146"
           transform="rotate(135)" />
        <rect
           style="fill:#ffffff;stroke-width:0.0981481"
           id="rect1-8"
           width="121.88337"
           height="60.941685"
           x="-207.66449"
           y="552.08667"
           transform="rotate(45)" />
      </g>
    </g>
    <path
       style="fill:none;stroke:#ffffff;stroke-width:14.636;stroke-linecap:square;stroke-dasharray:none;paint-order:markers fill stroke"
       id="path2"
       d="m 225.18075,127.94835 a 61.184731,61.184731 0 0 1 -49.24818,60.00908 61.184731,61.184731 0 0 1 -68.46387,-36.5947 61.184731,61.184731 0 0 1 22.5349,-74.287625 61.184731,61.184731 0 0 1 77.25656,7.609106" />
    <path
       style="fill:#ffffff;fill-opacity:1;stroke:none;stroke-width:14.636;stroke-linecap:square;paint-order:markers fill stroke"
       d="M 207.26016,84.684217 226.98582,64.958558 V 101.63872 H 190.13507 L 207.17478,84.599012"
       id="path3" />
  </g>
</svg>
