<?xml version="1.0" encoding="UTF-8" standalone="no"?>
<!-- Created with Inkscape (http://www.inkscape.org/) -->

<svg
   width="512mm"
   height="512mm"
   viewBox="0 0 512 512"
   version="1.1"
   id="svg1"
   xmlns="http://www.w3.org/2000/svg"
   xmlns:svg="http://www.w3.org/2000/svg">
  <defs
     id="defs1" />
  <g
     id="layer1">
    <circle
       style="fill:#000000;stroke:#000000;stroke-width:0.101"
       id="path1"
       cx="256"
       cy="256"
       r="256" />
    <g
       id="g2"
       transform="matrix(0.84694354,0,0,0.84694354,585.32394,64.057284)">
      <g
         id="g1"
         transform="translate(-2.2543068,-37.739081)">
        <rect
           style="fill:#ffffff;stroke-width:0.1714"
           id="rect1"
           width="365.65009"
           height="61.95179"
           x="247.37817"
           y="25.353146"
           transform="rotate(135)" />
        <rect
           style="fill:#ffffff;stroke-width:0.0981481"
           id="rect1-8"
           width="121.88337"
           height="60.941685"
           x="-207.66449"
           y="552.08667"
           transform="rotate(45)" />
      </g>
    </g>
    <g
       id="g3"
       transform="translate(-52.439428,37.922463)">
      <g
         id="g2-8"
         transform="matrix(0.1047383,0,0,0.1047383,190.07814,66.299706)">
        <g
           id="g1-2"
           transform="translate(-2.2543068,-37.739081)">
          <rect
             style="fill:#ffffff;stroke-width:0.1714"
             id="rect1-4"
             width="365.65009"
             height="61.95179"
             x="247.37817"
             y="25.353146"
             transform="rotate(135)" />
          <rect
             style="fill:#ffffff;stroke-width:0.0981481"
             id="rect1-8-5"
             width="121.88337"
             height="60.941685"
             x="-207.66449"
             y="552.08667"
             transform="rotate(45)" />
        </g>
        <path
           style="fill:none;fill-opacity:1;stroke:#ffffff;stroke-width:10;stroke-linecap:square;stroke-opacity:1"
           d="m -326.94685,-25.868195 h 51.32917 l 26.19375,26.1937502 V 78.135259 h -77.52292 V -25.868195"
           id="path4"
           transform="matrix(6.3518903,0,0,6.3518903,1441.6838,60.632555)" />
      </g>
      <g
         id="g2-8-8"
         transform="matrix(0.1047383,0,0,0.1047383,257.16514,66.299706)">
        <g
           id="g1-2-9"
           transform="translate(-2.2543068,-37.739081)">
          <rect
             style="fill:#ffffff;stroke-width:0.1714"
             id="rect1-4-2"
             width="365.65009"
             height="61.95179"
             x="247.37817"
             y="25.353146"
             transform="rotate(135)" />
          <rect
             style="fill:#ffffff;stroke-width:0.0981481"
             id="rect1-8-5-7"
             width="121.88337"
             height="60.941685"
             x="-207.66449"
             y="552.08667"
             transform="rotate(45)" />
        </g>
        <path
           style="fill:none;fill-opacity:1;stroke:#ffffff;stroke-width:10;stroke-linecap:square;stroke-opacity:1"
           d="m -326.94685,-25.868195 h 51.32917 l 26.19375,26.1937502 V 78.135259 h -77.52292 V -25.868195"
           id="path4-9"
           transform="matrix(6.3518903,0,0,6.3518903,1441.6838,60.632555)" />
      </g>
      <g
         id="g2-8-2"
         transform="matrix(0.1047383,0,0,0.1047383,324.25214,66.299706)">
        <g
           id="g1-2-3"
           transform="translate(-2.2543068,-37.739081)">
          <rect
             style="fill:#ffffff;stroke-width:0.1714"
             id="rect1-4-3"
             width="365.65009"
             height="61.95179"
             x="247.37817"
             y="25.353146"
             transform="rotate(135)" />
          <rect
             style="fill:#ffffff;stroke-width:0.0981481"
             id="rect1-8-5-4"
             width="121.88337"
             height="60.941685"
             x="-207.66449"
             y="552.08667"
             transform="rotate(45)" />
        </g>
        <path
           style="fill:none;fill-opacity:1;stroke:#ffffff;stroke-width:10;stroke-linecap:square;stroke-opacity:1"
           d="m -326.94685,-25.868195 h 51.32917 l 26.19375,26.1937502 V 78.135259 h -77.52292 V -25.868195"
           id="path4-1"
           transform="matrix(6.3518903,0,0,6.3518903,1441.6838,60.632555)" />
      </g>
    </g>
    <g
       id="g4"
       transform="translate(452.18485,82.982269)" />
  </g>
</svg>
